<svg width="48" height="48" viewBox="0 0 48 48" fill="none" xmlns="http://www.w3.org/2000/svg">
<g id="app-store-svgrepo-com">
<g id="SVGRepo_iconCarrier">
<path id="Vector" d="M42.1535 33.2681C41.1623 35.4665 40.6848 36.4481 39.408 38.3921C37.6272 41.1041 35.112 44.4833 31.9992 44.5121C29.2344 44.5361 28.524 42.7121 24.768 42.7337C21.0144 42.7529 20.232 44.5457 17.4648 44.5193C14.352 44.4905 11.9688 41.4401 10.1856 38.7257C5.20075 31.1417 4.67995 22.2377 7.75435 17.5025C9.93835 14.1401 13.3872 12.1721 16.6272 12.1721C19.9272 12.1721 22.0032 13.9817 24.7296 13.9817C27.3768 13.9817 28.9896 12.1673 32.8056 12.1673C35.6856 12.1673 38.7431 13.7393 40.92 16.4513C33.7872 20.3609 34.944 30.5465 42.1535 33.2681ZM29.9112 9.1385C31.296 7.3577 32.3496 4.8473 31.968 2.2793C29.7024 2.4353 27.0552 3.8753 25.5072 5.7545C24.1056 7.4585 22.9464 9.9857 23.3952 12.4433C25.8672 12.5177 28.4256 11.0417 29.9112 9.1385Z" fill="white"/>
</g>
</g>
</svg>
