<svg width="48" height="48" viewBox="0 0 48 48" fill="none" xmlns="http://www.w3.org/2000/svg">
<g id="playstore-svgrepo-com (1)">
<g id="SVGRepo_iconCarrier">
<g id="Group">
<path id="Vector" d="M35.8468 16.4655C30.2707 13.3467 21.321 8.33868 7.43919 0.565949C6.50329 -0.0521462 5.42647 -0.133146 4.49609 0.181761L28.3133 23.999L35.8468 16.4655Z" fill="#32BBFF"/>
<path id="Vector_2" d="M4.49575 0.181641C4.32138 0.240703 4.15169 0.311953 3.98941 0.398016C2.962 0.953767 2.20703 2.02318 2.20703 3.37571V44.622C2.20703 45.9746 2.96191 47.044 3.98941 47.5996C4.15141 47.6856 4.321 47.7571 4.49519 47.8166L28.313 23.9989L4.49575 0.181641Z" fill="#32BBFF"/>
<path id="Vector_3" d="M28.3139 23.998L4.49609 47.8158C5.42675 48.133 6.50357 48.0582 7.43976 47.4311C20.9021 39.8926 29.751 34.9439 35.3916 31.7986C35.5486 31.7104 35.7024 31.6242 35.8545 31.5387L28.3139 23.998Z" fill="#32BBFF"/>
</g>
<path id="Vector_4" d="M2.20703 23.998V44.6212C2.20703 45.9737 2.96191 47.0432 3.98941 47.5988C4.15141 47.6848 4.321 47.7563 4.49519 47.8158L28.313 23.998H2.20703Z" fill="#2C9FD9"/>
<path id="Vector_5" d="M7.43968 0.565118C6.32827 -0.168759 5.01764 -0.147853 3.99023 0.397399L27.9523 24.3596L35.8472 16.4647C30.2712 13.3459 21.3215 8.33785 7.43968 0.565118Z" fill="#29CC5E"/>
<path id="Vector_6" d="M27.9525 23.6367L3.99023 47.5988C5.01774 48.144 6.32827 48.1755 7.43968 47.4311C20.902 39.8926 29.7509 34.9439 35.3915 31.7986C35.5485 31.7104 35.7024 31.6241 35.8544 31.5387L27.9525 23.6367Z" fill="#D93F21"/>
<path id="Vector_7" d="M45.7912 23.9979C45.7912 22.8551 45.2145 21.7017 44.0716 21.0622C44.0716 21.0622 41.9342 19.8696 35.3826 16.2051L27.5898 23.9979L35.3902 31.7984C41.8699 28.1602 44.0715 26.9335 44.0715 26.9335C45.2145 26.294 45.7912 25.1407 45.7912 23.9979Z" fill="#FFD500"/>
<path id="Vector_8" d="M44.0716 26.9337C45.2145 26.2942 45.7912 25.1409 45.7912 23.998H27.5898L35.3902 31.7985C41.87 28.1605 44.0716 26.9337 44.0716 26.9337Z" fill="#FFAA00"/>
</g>
</g>
</svg>
